<svg width="18" height="10" viewBox="0 0 18 10" fill="none" xmlns="http://www.w3.org/2000/svg">
<path d="M8.90186 9.76757C8.70755 9.76757 8.51907 9.73113 8.33642 9.65827C8.15377 9.5854 8.00221 9.48825 7.88174 9.3668L1.1781 2.66317C0.91093 2.39599 0.777344 2.05595 0.777344 1.64305C0.777344 1.23014 0.91093 0.890102 1.1781 0.622928C1.44528 0.355754 1.78532 0.222168 2.19822 0.222168C2.61113 0.222168 2.95117 0.355754 3.21834 0.622928L8.90186 6.30645L14.5854 0.622928C14.8526 0.355754 15.1926 0.222168 15.6055 0.222168C16.0184 0.222168 16.3584 0.355754 16.6256 0.622928C16.8928 0.890102 17.0264 1.23014 17.0264 1.64305C17.0264 2.05595 16.8928 2.39599 16.6256 2.66317L9.92198 9.3668C9.77625 9.51254 9.61837 9.616 9.44835 9.67721C9.27833 9.73842 9.09617 9.76854 8.90186 9.76757Z" fill="black"/>
</svg>
